<?xml version="1.0" standalone="no"?><!DOCTYPE svg PUBLIC "-//W3C//DTD SVG 1.1//EN" "http://www.w3.org/Graphics/SVG/1.1/DTD/svg11.dtd"><svg t="1557555561208" class="icon" style="" viewBox="0 0 1024 1024" version="1.1" xmlns="http://www.w3.org/2000/svg" p-id="1924" xmlns:xlink="http://www.w3.org/1999/xlink" width="128" height="128"><defs><style type="text/css">@font-face { font-family: uc-nexus-iconfont; src: url("chrome-extension://pogijhnlcfmcppgimcaccdkmbedjkmhi/res/font_9qmmi8b8jsxxbt9.woff") format("woff"), url("chrome-extension://pogijhnlcfmcppgimcaccdkmbedjkmhi/res/font_9qmmi8b8jsxxbt9.ttf") format("truetype"); }
</style></defs><path d="M483.141818 279.272727h465.454546a27.461818 27.461818 0 0 0 28.858181-29.323636 27.461818 27.461818 0 0 0-28.858181-28.858182h-465.454546a27.461818 27.461818 0 0 0-29.323636 28.858182 31.185455 31.185455 0 0 0 29.323636 29.323636z m465.454546 203.403637h-349.090909a28.858182 28.858182 0 0 0 0 58.181818h349.090909a28.858182 28.858182 0 0 0 0-58.181818z m0 261.585454h-174.545455a29.323636 29.323636 0 0 0 0 58.181818h174.545455a29.323636 29.323636 0 0 0 0-58.181818z m-427.752728-49.338182l-183.389091 183.389091V75.869091A27.461818 27.461818 0 0 0 308.130909 46.545455a27.461818 27.461818 0 0 0-28.858182 29.323636v802.443636l-183.389091-182.923636a27.927273 27.927273 0 0 0-40.96 0 27.927273 27.927273 0 0 0 0 40.96l232.727273 232.727273a27.927273 27.927273 0 0 0 40.96 0l232.727273-232.727273a28.858182 28.858182 0 0 0-40.96-40.96z m0 0" p-id="1925" fill="#1296db"></path></svg>